<svg width="40" height="40" viewBox="0 0 40 40" fill="none" xmlns="http://www.w3.org/2000/svg">
<g clip-path="url(#clip0_2904_15691)">
<path d="M40 20C40 8.9543 31.0457 0 20 0C8.9543 0 0 8.9543 0 20C0 31.0457 8.9543 40 20 40C31.0457 40 40 31.0457 40 20Z" fill="white"/>
<path d="M27.056 20.84L27.032 23L26.432 23.168C26.192 23.232 26.024 23.32 25.928 23.432C25.848 23.544 25.808 23.76 25.808 24.08V27.704C24.896 28.136 23.928 28.504 22.904 28.808C21.896 29.096 20.76 29.24 19.496 29.24C16.84 29.24 14.864 28.528 13.568 27.104C12.288 25.664 11.648 23.64 11.648 21.032C11.648 19.096 11.992 17.408 12.68 15.968C13.384 14.528 14.384 13.424 15.68 12.656C16.976 11.872 18.496 11.48 20.24 11.48C22.224 11.48 24.144 11.976 26 12.968L25.616 17.36H23.192L22.784 15.008C21.824 14.512 20.72 14.264 19.472 14.264C18.496 14.264 17.712 14.448 17.12 14.816C16.544 15.168 16.112 15.752 15.824 16.568C15.552 17.368 15.416 18.464 15.416 19.856C15.416 22.08 15.784 23.728 16.52 24.8C17.272 25.872 18.56 26.408 20.384 26.408C21.184 26.408 21.88 26.304 22.472 26.096V24.152C22.472 23.848 22.424 23.64 22.328 23.528C22.248 23.4 22.064 23.304 21.776 23.24L20.432 23V20.84H27.056Z" fill="black"/>
</g>
<defs>
<clipPath id="clip0_2904_15691">
<rect width="40" height="40" fill="white"/>
</clipPath>
</defs>
</svg>
