<svg width="184" height="40" viewBox="0 0 184 40" fill="none" xmlns="http://www.w3.org/2000/svg">
<g clip-path="url(#clip0_847_4747)">
<path d="M40 20C40 8.9543 31.0457 0 20 0C8.9543 0 0 8.9543 0 20C0 31.0457 8.9543 40 20 40C31.0457 40 40 31.0457 40 20Z" fill="white"/>
<path d="M27.056 20.84L27.032 23L26.432 23.168C26.192 23.232 26.024 23.32 25.928 23.432C25.848 23.544 25.808 23.76 25.808 24.08V27.704C24.896 28.136 23.928 28.504 22.904 28.808C21.896 29.096 20.76 29.24 19.496 29.24C16.84 29.24 14.864 28.528 13.568 27.104C12.288 25.664 11.648 23.64 11.648 21.032C11.648 19.096 11.992 17.408 12.68 15.968C13.384 14.528 14.384 13.424 15.68 12.656C16.976 11.872 18.496 11.48 20.24 11.48C22.224 11.48 24.144 11.976 26 12.968L25.616 17.36H23.192L22.784 15.008C21.824 14.512 20.72 14.264 19.472 14.264C18.496 14.264 17.712 14.448 17.12 14.816C16.544 15.168 16.112 15.752 15.824 16.568C15.552 17.368 15.416 18.464 15.416 19.856C15.416 22.08 15.784 23.728 16.52 24.8C17.272 25.872 18.56 26.408 20.384 26.408C21.184 26.408 21.88 26.304 22.472 26.096V24.152C22.472 23.848 22.424 23.64 22.328 23.528C22.248 23.4 22.064 23.304 21.776 23.24L20.432 23V20.84H27.056Z" fill="black"/>
</g>
<path d="M44.84 24.032C44.84 22.88 45.008 21.768 45.344 20.696C45.696 19.608 46.248 18.672 47 17.888C47.768 17.104 48.664 16.712 49.688 16.712C50.152 16.712 50.56 16.792 50.912 16.952C51.28 17.112 51.56 17.312 51.752 17.552C51.96 17.776 52.128 18.008 52.256 18.248C52.384 18.472 52.472 18.664 52.52 18.824C52.568 18.984 52.6 19.064 52.616 19.064C52.616 18.2 52.608 17.632 52.592 17.36C52.912 17.088 53.24 16.912 53.576 16.832C53.928 16.736 54.408 16.688 55.016 16.688C55.496 16.688 55.92 16.704 56.288 16.736C56.672 16.768 56.96 16.808 57.152 16.856C57.344 16.904 57.496 16.952 57.608 17C57.736 17.048 57.816 17.08 57.848 17.096L57.896 17.12C57.96 17.264 57.992 17.712 57.992 18.464C57.992 19.232 57.96 19.688 57.896 19.832C57.848 19.944 57.592 20.048 57.128 20.144C56.664 20.224 56.264 20.264 55.928 20.264C55.768 20.264 55.592 20.248 55.4 20.216C55.448 20.312 55.472 20.72 55.472 21.44C55.472 23.536 55.4 24.696 55.256 24.92C55.368 24.872 55.504 24.848 55.664 24.848C56.368 24.848 57.056 24.92 57.728 25.064C57.856 25.16 57.92 25.84 57.92 27.104C57.92 27.808 57.896 28.256 57.848 28.448C57.736 28.624 57.384 28.792 56.792 28.952C56.2 29.112 55.528 29.192 54.776 29.192C53.416 29.192 52.576 29.16 52.256 29.096C52.144 28.792 52.088 28.536 52.088 28.328C52.088 28.2 52.112 28.104 52.16 28.04C51.968 28.104 51.424 28.344 50.528 28.76C49.632 29.176 48.984 29.384 48.584 29.384C47.352 29.384 46.416 28.864 45.776 27.824C45.152 26.784 44.84 25.52 44.84 24.032ZM47.84 23.408C47.84 24.304 48.112 25.064 48.656 25.688C49.216 26.296 49.8 26.6 50.408 26.6C50.744 26.6 51.128 26.512 51.56 26.336C51.992 26.16 52.224 26 52.256 25.856C52.304 25.12 52.344 24.448 52.376 23.84C52.424 23.216 52.456 22.744 52.472 22.424C52.504 22.088 52.52 21.872 52.52 21.776V21.488C52.52 21.152 52.296 20.824 51.848 20.504C51.416 20.168 50.928 20 50.384 20C49.584 20 48.96 20.368 48.512 21.104C48.064 21.824 47.84 22.592 47.84 23.408ZM59.3131 12.608C59.3131 11.888 59.3451 11.44 59.4091 11.264L59.4331 11.24C59.4651 11.208 59.5291 11.168 59.6251 11.12C59.7211 11.072 59.8411 11.024 59.9851 10.976C60.1451 10.928 60.3851 10.888 60.7051 10.856C61.0251 10.824 61.3851 10.808 61.7851 10.808C63.6731 10.808 64.8971 11.048 65.4571 11.528C65.5371 11.688 65.5771 12.56 65.5771 14.144C65.5771 14.816 65.5611 15.456 65.5291 16.064C65.5131 16.656 65.5051 16.968 65.5051 17C66.1771 16.808 66.8011 16.712 67.3771 16.712C68.9931 16.712 70.2731 17.344 71.2171 18.608C72.1771 19.856 72.6571 21.288 72.6571 22.904C72.6571 23.832 72.4971 24.768 72.1771 25.712C71.8731 26.656 71.3851 27.472 70.7131 28.16C70.0411 28.848 69.2811 29.192 68.4331 29.192C67.9051 29.192 67.2491 28.992 66.4651 28.592C65.6971 28.176 65.1851 27.928 64.9291 27.848C64.9451 27.864 64.9531 27.936 64.9531 28.064C64.9531 28.32 64.9131 28.6 64.8331 28.904C64.5131 28.968 63.5931 29 62.0731 29C60.6491 29 59.7851 28.752 59.4811 28.256C59.4331 28.064 59.4091 27.616 59.4091 26.912C59.4091 25.648 59.4731 24.968 59.6011 24.872C59.8571 24.712 60.4411 24.632 61.3531 24.632C61.8171 24.632 62.1051 24.664 62.2171 24.728C62.2011 24.12 62.1931 23.224 62.1931 22.04C62.1931 21.304 62.1931 20.52 62.1931 19.688C62.2091 18.84 62.2251 17.904 62.2411 16.88C62.2571 15.856 62.2651 15.024 62.2651 14.384C62.2011 14.4 62.0731 14.408 61.8811 14.408C60.7291 14.408 59.9051 14.264 59.4091 13.976C59.3451 13.8 59.3131 13.344 59.3131 12.608ZM65.2651 25.088C65.2651 25.232 65.4971 25.416 65.9611 25.64C66.4251 25.848 66.8491 25.952 67.2331 25.952C67.8571 25.952 68.4171 25.648 68.9131 25.04C69.4091 24.432 69.6571 23.64 69.6571 22.664C69.6571 21.864 69.4811 21.096 69.1291 20.36C68.7931 19.608 68.2491 19.208 67.4971 19.16C66.9211 19.16 66.4251 19.304 66.0091 19.592C65.6091 19.864 65.4011 20.152 65.3851 20.456C65.3691 20.664 65.3531 20.96 65.3371 21.344C65.3371 21.728 65.3291 22.28 65.3131 23C65.2971 23.72 65.2811 24.416 65.2651 25.088ZM74.4444 18.512C74.4444 17.856 74.4924 17.392 74.5884 17.12C75.5004 16.848 76.3884 16.712 77.2524 16.712C78.2924 16.712 79.0924 16.928 79.6524 17.36C79.6364 17.632 79.6284 18.04 79.6284 18.584L79.7244 18.392C79.7724 18.264 79.8604 18.112 79.9884 17.936C80.1324 17.744 80.3004 17.56 80.4924 17.384C80.6844 17.192 80.9564 17.032 81.3084 16.904C81.6604 16.776 82.0524 16.712 82.4844 16.712C83.7004 16.712 84.7324 17.232 85.5804 18.272C85.4684 18.976 85.1884 19.512 84.7404 19.88C84.2924 20.248 83.8444 20.448 83.3964 20.48C82.8044 20.064 82.2364 19.856 81.6924 19.856C80.1084 19.856 79.3164 20.864 79.3164 22.88C79.3164 23.568 79.4044 24.32 79.5804 25.136C79.6124 25.056 79.8364 25.016 80.2524 25.016C80.7324 25.016 81.0284 25.072 81.1404 25.184C81.3324 25.488 81.4284 25.984 81.4284 26.672C81.4284 27.712 81.2444 28.392 80.8764 28.712C80.0604 28.888 79.0764 28.976 77.9244 28.976C76.0364 28.976 74.9404 28.8 74.6364 28.448C74.5884 28.256 74.5644 27.768 74.5644 26.984C74.5644 25.864 74.6124 25.264 74.7084 25.184C74.8204 25.04 75.1324 24.968 75.6444 24.968C76.0124 24.968 76.2844 25.024 76.4604 25.136C76.3164 24.768 76.2444 23.528 76.2444 21.416C76.2444 20.712 76.2684 20.312 76.3164 20.216C76.1244 20.248 75.9484 20.264 75.7884 20.264C75.2124 20.264 74.8124 20.12 74.5884 19.832C74.4924 19.592 74.4444 19.152 74.4444 18.512ZM86.5314 27.008C86.5314 26.192 86.5794 25.728 86.6754 25.616C86.8674 25.504 87.1074 25.432 87.3954 25.4C87.5874 25.368 88.0034 25.352 88.6434 25.352C88.5474 24.344 88.4994 23.248 88.4994 22.064C88.4994 20.768 88.5794 19.944 88.7394 19.592C87.9554 19.592 87.4354 19.56 87.1794 19.496C87.1954 19.064 87.2514 18.608 87.3474 18.128C87.3794 17.92 87.4754 17.512 87.6354 16.904C88.2274 16.792 89.2194 16.736 90.6114 16.736C91.1714 16.736 91.6834 16.768 92.1474 16.832C92.6274 16.896 92.9874 16.976 93.2274 17.072C93.4834 17.152 93.6114 17.232 93.6114 17.312C93.6434 17.312 93.6594 17.6 93.6594 18.176C93.6594 19.088 93.5794 19.664 93.4194 19.904C93.3554 20 93.1634 20.048 92.8434 20.048C92.2514 20.048 91.8754 20.008 91.7154 19.928C91.5394 21.048 91.4514 22.504 91.4514 24.296C91.4514 25.032 91.4754 25.416 91.5234 25.448C91.6194 25.432 91.7554 25.424 91.9314 25.424C92.5074 25.424 92.9714 25.512 93.3234 25.688C93.3714 25.752 93.3954 25.896 93.3954 26.12C93.3954 26.52 93.3394 27 93.2274 27.56C93.1154 28.12 92.9554 28.504 92.7474 28.712C92.5554 28.904 91.9314 29 90.8754 29C88.3634 29 86.9714 28.768 86.6994 28.304C86.5874 28.096 86.5314 27.664 86.5314 27.008ZM88.4514 12.056C88.4514 11.608 88.6914 11.384 89.1714 11.384C89.5714 11.384 90.0034 11.504 90.4674 11.744C90.8034 11.408 91.2514 11.24 91.8114 11.24C92.1634 11.24 92.4754 11.36 92.7474 11.6C93.0194 11.84 93.1554 12.168 93.1554 12.584C93.1554 12.792 93.1074 12.992 93.0114 13.184C92.9314 13.376 92.8434 13.536 92.7474 13.664C92.6514 13.792 92.4914 13.944 92.2674 14.12C92.0434 14.28 91.8674 14.4 91.7394 14.48C91.6274 14.544 91.4194 14.664 91.1154 14.84C90.8114 15 90.6194 15.104 90.5394 15.152C89.9154 14.688 89.4114 14.168 89.0274 13.592C88.6434 13 88.4514 12.488 88.4514 12.056ZM95.2289 23.984C95.2289 22.176 95.8769 20.52 97.1729 19.016C98.4849 17.512 99.9489 16.76 101.565 16.76C102.557 16.76 103.405 17.064 104.109 17.672C104.813 18.28 105.165 19.072 105.165 20.048C105.165 21.184 104.693 22.16 103.749 22.976C102.821 23.776 101.589 24.176 100.053 24.176C99.1729 24.176 98.5569 24.04 98.2049 23.768C98.2209 24.536 98.4929 25.152 99.0209 25.616C99.5489 26.064 100.157 26.288 100.845 26.288C101.741 26.288 102.469 25.936 103.029 25.232C103.029 25.104 103.053 24.968 103.101 24.824C103.805 24.248 104.565 23.96 105.381 23.96C105.541 23.96 105.661 23.968 105.741 23.984C106.797 24.56 107.445 25.504 107.685 26.816C107.669 26.944 107.605 27.08 107.493 27.224C107.397 27.368 107.293 27.496 107.181 27.608C107.069 27.704 106.909 27.824 106.701 27.968C106.493 28.096 106.325 28.192 106.197 28.256C106.085 28.32 105.909 28.416 105.669 28.544C105.445 28.672 105.317 28.744 105.285 28.76C105.189 28.76 105.109 28.752 105.045 28.736C104.981 28.704 104.917 28.664 104.853 28.616C104.805 28.552 104.773 28.512 104.757 28.496C104.741 28.464 104.709 28.4 104.661 28.304C104.613 28.192 104.581 28.128 104.565 28.112C103.381 28.896 102.109 29.288 100.749 29.288C99.2289 29.288 97.9249 28.8 96.8369 27.824C95.7649 26.848 95.2289 25.568 95.2289 23.984ZM98.9729 21.176C98.9729 21.704 99.3569 21.968 100.125 21.968C100.701 21.968 101.253 21.832 101.781 21.56C102.309 21.288 102.573 20.952 102.573 20.552C102.573 20.28 102.477 20 102.285 19.712C102.109 19.408 101.821 19.256 101.421 19.256C100.925 19.256 100.389 19.456 99.8129 19.856C99.2529 20.256 98.9729 20.696 98.9729 21.176ZM108.611 26.84C108.611 26.152 108.667 25.752 108.779 25.64C109.195 25.448 109.659 25.352 110.171 25.352C109.995 24.296 109.907 22.68 109.907 20.504C109.907 17.944 109.987 15.72 110.147 13.832C109.683 13.832 109.323 13.8 109.067 13.736C109.035 13.416 109.019 13.16 109.019 12.968C109.019 12.264 109.187 11.656 109.523 11.144C110.211 10.984 110.859 10.904 111.467 10.904C112.235 10.904 112.835 10.984 113.267 11.144C113.427 12.648 113.507 14.24 113.507 15.92C113.507 17.104 113.451 18.792 113.339 20.984C113.243 23.176 113.187 24.664 113.171 25.448C113.251 25.432 113.379 25.424 113.555 25.424C114.035 25.424 114.427 25.512 114.731 25.688C114.795 25.816 114.827 26.008 114.827 26.264C114.827 26.648 114.763 27.112 114.635 27.656C114.507 28.184 114.379 28.56 114.251 28.784C114.043 28.944 113.251 29.024 111.875 29.024C111.123 29.024 110.443 28.96 109.835 28.832C109.243 28.704 108.891 28.544 108.779 28.352C108.667 28.16 108.611 27.656 108.611 26.84ZM121.463 26.384C121.463 26.048 121.495 25.848 121.559 25.784C122.007 25.72 122.367 25.688 122.639 25.688C122.687 25.688 122.767 25.696 122.879 25.712C123.007 25.712 123.103 25.712 123.167 25.712C123.055 24.272 122.999 23.016 122.999 21.944C122.999 20.504 123.103 18.344 123.311 15.464C122.783 15.608 122.423 15.68 122.231 15.68C122.087 15.68 121.991 15.664 121.943 15.632C121.687 15.44 121.559 14.992 121.559 14.288C121.559 13.536 121.663 13 121.871 12.68C122.895 12.2 124.647 11.96 127.127 11.96C128.679 11.96 130.295 12.048 131.975 12.224C133.655 12.4 134.823 12.6 135.479 12.824C135.639 13.624 135.719 14.24 135.719 14.672C135.719 15.424 135.535 16.04 135.167 16.52C134.847 16.6 134.511 16.64 134.159 16.64C133.247 16.64 132.663 16.384 132.407 15.872L132.479 15.08C132.159 14.872 131.327 14.768 129.983 14.768C129.519 14.768 128.943 14.792 128.255 14.84C127.583 14.888 127.239 14.936 127.223 14.984C126.999 15.768 126.791 16.992 126.599 18.656C127.975 18.656 128.671 18.632 128.687 18.584C128.687 18.184 128.767 17.904 128.927 17.744C129.439 17.632 129.727 17.576 129.791 17.576C130.255 17.576 130.679 17.656 131.063 17.816C131.351 18.152 131.495 18.76 131.495 19.64C131.495 20.136 131.447 20.616 131.351 21.08C131.271 21.528 131.167 21.816 131.039 21.944C130.895 22.056 130.439 22.112 129.671 22.112C129.239 22.112 128.975 22.064 128.879 21.968C128.847 21.936 128.807 21.896 128.759 21.848C128.727 21.784 128.703 21.744 128.687 21.728C128.671 21.696 128.655 21.664 128.639 21.632C128.623 21.584 128.607 21.536 128.591 21.488C128.591 21.44 128.591 21.376 128.591 21.296H126.431C126.431 22.72 126.471 24.232 126.551 25.832C126.695 25.784 126.927 25.76 127.247 25.76C127.663 25.76 127.895 25.792 127.943 25.856C128.103 26.064 128.183 26.64 128.183 27.584C128.183 28.352 128.167 28.736 128.135 28.736C127.623 29.136 126.631 29.336 125.159 29.336C123.527 29.336 122.399 29.176 121.775 28.856C121.567 28.584 121.463 27.76 121.463 26.384ZM134.606 24.032C134.606 22.88 134.774 21.768 135.11 20.696C135.462 19.608 136.014 18.672 136.766 17.888C137.534 17.104 138.43 16.712 139.454 16.712C139.918 16.712 140.326 16.792 140.678 16.952C141.046 17.112 141.326 17.312 141.518 17.552C141.726 17.776 141.894 18.008 142.022 18.248C142.15 18.472 142.238 18.664 142.286 18.824C142.334 18.984 142.366 19.064 142.382 19.064C142.382 18.2 142.374 17.632 142.358 17.36C142.678 17.088 143.006 16.912 143.342 16.832C143.694 16.736 144.174 16.688 144.782 16.688C145.262 16.688 145.686 16.704 146.054 16.736C146.438 16.768 146.726 16.808 146.918 16.856C147.11 16.904 147.262 16.952 147.374 17C147.502 17.048 147.582 17.08 147.614 17.096L147.662 17.12C147.726 17.264 147.758 17.712 147.758 18.464C147.758 19.232 147.726 19.688 147.662 19.832C147.614 19.944 147.358 20.048 146.894 20.144C146.43 20.224 146.03 20.264 145.694 20.264C145.534 20.264 145.358 20.248 145.166 20.216C145.214 20.312 145.238 20.72 145.238 21.44C145.238 23.536 145.166 24.696 145.022 24.92C145.134 24.872 145.27 24.848 145.43 24.848C146.134 24.848 146.822 24.92 147.494 25.064C147.622 25.16 147.686 25.84 147.686 27.104C147.686 27.808 147.662 28.256 147.614 28.448C147.502 28.624 147.15 28.792 146.558 28.952C145.966 29.112 145.294 29.192 144.542 29.192C143.182 29.192 142.342 29.16 142.022 29.096C141.91 28.792 141.854 28.536 141.854 28.328C141.854 28.2 141.878 28.104 141.926 28.04C141.734 28.104 141.19 28.344 140.294 28.76C139.398 29.176 138.75 29.384 138.35 29.384C137.118 29.384 136.182 28.864 135.542 27.824C134.918 26.784 134.606 25.52 134.606 24.032ZM137.606 23.408C137.606 24.304 137.878 25.064 138.422 25.688C138.982 26.296 139.566 26.6 140.174 26.6C140.51 26.6 140.894 26.512 141.326 26.336C141.758 26.16 141.99 26 142.022 25.856C142.07 25.12 142.11 24.448 142.142 23.84C142.19 23.216 142.222 22.744 142.238 22.424C142.27 22.088 142.286 21.872 142.286 21.776V21.488C142.286 21.152 142.062 20.824 141.614 20.504C141.182 20.168 140.694 20 140.15 20C139.35 20 138.726 20.368 138.278 21.104C137.83 21.824 137.606 22.592 137.606 23.408ZM149.679 18.512C149.679 17.856 149.727 17.392 149.823 17.12C150.735 16.848 151.623 16.712 152.487 16.712C153.527 16.712 154.327 16.928 154.887 17.36C154.871 17.632 154.863 18.04 154.863 18.584L154.959 18.392C155.007 18.264 155.095 18.112 155.223 17.936C155.367 17.744 155.535 17.56 155.727 17.384C155.919 17.192 156.191 17.032 156.543 16.904C156.895 16.776 157.287 16.712 157.719 16.712C158.935 16.712 159.967 17.232 160.815 18.272C160.703 18.976 160.423 19.512 159.975 19.88C159.527 20.248 159.079 20.448 158.631 20.48C158.039 20.064 157.471 19.856 156.927 19.856C155.343 19.856 154.551 20.864 154.551 22.88C154.551 23.568 154.639 24.32 154.815 25.136C154.847 25.056 155.071 25.016 155.487 25.016C155.967 25.016 156.263 25.072 156.375 25.184C156.567 25.488 156.663 25.984 156.663 26.672C156.663 27.712 156.479 28.392 156.111 28.712C155.295 28.888 154.311 28.976 153.159 28.976C151.271 28.976 150.175 28.8 149.871 28.448C149.823 28.256 149.799 27.768 149.799 26.984C149.799 25.864 149.847 25.264 149.943 25.184C150.055 25.04 150.367 24.968 150.879 24.968C151.247 24.968 151.519 25.024 151.695 25.136C151.551 24.768 151.479 23.528 151.479 21.416C151.479 20.712 151.503 20.312 151.551 20.216C151.359 20.248 151.183 20.264 151.023 20.264C150.447 20.264 150.047 20.12 149.823 19.832C149.727 19.592 149.679 19.152 149.679 18.512ZM161.766 27.008C161.766 26.192 161.814 25.728 161.91 25.616C162.102 25.504 162.342 25.432 162.63 25.4C162.822 25.368 163.238 25.352 163.878 25.352C163.782 24.344 163.734 23.248 163.734 22.064C163.734 20.768 163.814 19.944 163.974 19.592C163.19 19.592 162.67 19.56 162.414 19.496C162.43 19.064 162.486 18.608 162.582 18.128C162.614 17.92 162.71 17.512 162.87 16.904C163.462 16.792 164.454 16.736 165.846 16.736C166.406 16.736 166.918 16.768 167.382 16.832C167.862 16.896 168.222 16.976 168.462 17.072C168.718 17.152 168.846 17.232 168.846 17.312C168.878 17.312 168.894 17.6 168.894 18.176C168.894 19.088 168.814 19.664 168.654 19.904C168.59 20 168.398 20.048 168.078 20.048C167.486 20.048 167.11 20.008 166.95 19.928C166.774 21.048 166.686 22.504 166.686 24.296C166.686 25.032 166.71 25.416 166.758 25.448C166.854 25.432 166.99 25.424 167.166 25.424C167.742 25.424 168.206 25.512 168.558 25.688C168.606 25.752 168.63 25.896 168.63 26.12C168.63 26.52 168.574 27 168.462 27.56C168.35 28.12 168.19 28.504 167.982 28.712C167.79 28.904 167.166 29 166.11 29C163.598 29 162.206 28.768 161.934 28.304C161.822 28.096 161.766 27.664 161.766 27.008ZM163.686 12.056C163.686 11.608 163.926 11.384 164.406 11.384C164.806 11.384 165.238 11.504 165.702 11.744C166.038 11.408 166.486 11.24 167.046 11.24C167.398 11.24 167.71 11.36 167.982 11.6C168.254 11.84 168.39 12.168 168.39 12.584C168.39 12.792 168.342 12.992 168.246 13.184C168.166 13.376 168.078 13.536 167.982 13.664C167.886 13.792 167.726 13.944 167.502 14.12C167.278 14.28 167.102 14.4 166.974 14.48C166.862 14.544 166.654 14.664 166.35 14.84C166.046 15 165.854 15.104 165.774 15.152C165.15 14.688 164.646 14.168 164.262 13.592C163.878 13 163.686 12.488 163.686 12.056ZM170.535 24.032C170.535 22.88 170.703 21.768 171.039 20.696C171.391 19.608 171.943 18.672 172.695 17.888C173.463 17.104 174.359 16.712 175.383 16.712C175.847 16.712 176.255 16.792 176.607 16.952C176.975 17.112 177.255 17.312 177.447 17.552C177.655 17.776 177.823 18.008 177.951 18.248C178.079 18.472 178.167 18.664 178.215 18.824C178.263 18.984 178.295 19.064 178.311 19.064C178.311 18.2 178.303 17.632 178.287 17.36C178.607 17.088 178.935 16.912 179.271 16.832C179.623 16.736 180.103 16.688 180.711 16.688C181.191 16.688 181.615 16.704 181.983 16.736C182.367 16.768 182.655 16.808 182.847 16.856C183.039 16.904 183.191 16.952 183.303 17C183.431 17.048 183.511 17.08 183.543 17.096L183.591 17.12C183.655 17.264 183.687 17.712 183.687 18.464C183.687 19.232 183.655 19.688 183.591 19.832C183.543 19.944 183.287 20.048 182.823 20.144C182.359 20.224 181.959 20.264 181.623 20.264C181.463 20.264 181.287 20.248 181.095 20.216C181.143 20.312 181.167 20.72 181.167 21.44C181.167 23.536 181.095 24.696 180.951 24.92C181.063 24.872 181.199 24.848 181.359 24.848C182.063 24.848 182.751 24.92 183.423 25.064C183.551 25.16 183.615 25.84 183.615 27.104C183.615 27.808 183.591 28.256 183.543 28.448C183.431 28.624 183.079 28.792 182.487 28.952C181.895 29.112 181.223 29.192 180.471 29.192C179.111 29.192 178.271 29.16 177.951 29.096C177.839 28.792 177.783 28.536 177.783 28.328C177.783 28.2 177.807 28.104 177.855 28.04C177.663 28.104 177.119 28.344 176.223 28.76C175.327 29.176 174.679 29.384 174.279 29.384C173.047 29.384 172.111 28.864 171.471 27.824C170.847 26.784 170.535 25.52 170.535 24.032ZM173.535 23.408C173.535 24.304 173.807 25.064 174.351 25.688C174.911 26.296 175.495 26.6 176.103 26.6C176.439 26.6 176.823 26.512 177.255 26.336C177.687 26.16 177.919 26 177.951 25.856C177.999 25.12 178.039 24.448 178.071 23.84C178.119 23.216 178.151 22.744 178.167 22.424C178.199 22.088 178.215 21.872 178.215 21.776V21.488C178.215 21.152 177.991 20.824 177.543 20.504C177.111 20.168 176.623 20 176.079 20C175.279 20 174.655 20.368 174.207 21.104C173.759 21.824 173.535 22.592 173.535 23.408Z" fill="white"/>
<defs>
<clipPath id="clip0_847_4747">
<rect width="40" height="40" fill="white"/>
</clipPath>
</defs>
</svg>
