<svg width="125" height="1000" viewBox="0 0 125 1000" fill="none" xmlns="http://www.w3.org/2000/svg">
<path fill-rule="evenodd" clip-rule="evenodd" d="M125 1000L69.4676 951.114L13.9352 902.229C-37.1312 843.972 68.5861 675.448 68.5861 607.903C68.5861 540.358 51.228 472.813 55.5675 405.268C59.9071 337.724 85.9442 270.179 85.9442 202.634C85.9442 135.09 59.9071 67.5447 46.8885 33.7724L33.8699 0H125V33.7724C125 67.5447 125 135.09 125 202.634C125 270.179 125 337.724 125 405.268C125 472.813 125 540.358 125 607.903C125 675.448 125 742.992 125 776.765V810.537L125 1000Z" fill="#407BFF"/>
</svg>
