<svg width="125" height="1000" viewBox="0 0 125 1000" fill="none" xmlns="http://www.w3.org/2000/svg">
<path fill-rule="evenodd" clip-rule="evenodd" d="M-1.52588e-05 0L55.5324 46.0099L111.065 92.0198C162.131 146.85 56.4139 305.461 56.4139 369.033C56.4139 432.604 73.772 496.176 69.4324 559.747C65.0929 623.319 39.0558 686.89 39.0558 750.462C39.0558 814.033 135.5 880.471 93 921.412L-1.52588e-05 1000L-1.52588e-05 941.176V909.391C-1.52588e-05 877.605 -1.52588e-05 814.033 -1.52588e-05 750.462C-1.52588e-05 686.89 -1.52588e-05 623.319 -1.52588e-05 559.747C-1.52588e-05 496.176 -1.52588e-05 432.604 -1.52588e-05 369.033C-1.52588e-05 305.461 -1.52588e-05 241.89 -1.52588e-05 210.104L-1.52588e-05 178.318L-1.52588e-05 0Z" fill="#407BFF"/>
</svg>
